<svg id="headerMedia" version="1.1" viewBox="0 0 958 958" xmlns="http://www.w3.org/2000/svg">
 <path d="M78,516.6V491.23q0-29.18,17.13-47.1t51.38-17.92q21.57,0,36.16,7.61t14.59,17.13q0,6.66-4.76,13.32t-11.42,6.66q-1.9,0-11.26-4.28a47.84,47.84,0,0,0-20.14-4.28q-30.77,0-30.77,29v25.19q0,29,31.08,29a44.06,44.06,0,0,0,20-4.6q9.2-4.6,11.74-4.6a15.2,15.2,0,0,1,12.53,6.34q4.91,6.35,4.92,13,0,9.84-15.38,17.92t-37,8.09q-34.57,0-51.7-17.76T78,516.6Z"/>
 <path d="M207.42,516.6v-26q0-26,20.3-45.2t48.53-19.19q27.59,0,48.21,19t20.62,45.36v26q0,25.69-20.62,45.36t-48.21,19.67q-27.59,0-48.21-19.67T207.42,516.6Zm40.92-.09a28.65,28.65,0,0,0,8.25,20.15q8.25,8.82,19.67,8.81,11.1,0,19.51-8.81t8.41-20.15V490.69q0-10.7-8.41-19.51t-19.51-8.82A26.24,26.24,0,0,0,256.58,471q-8.25,8.65-8.25,19.67Z"/>
 <path d="M353.64,564.6q0-8.36,7-16.71l62.49-87.42H368.23q-5.08,0-8.56-4.77a21,21,0,0,1-.16-23,10.27,10.27,0,0,1,8.72-4.62h93.25a13.44,13.44,0,0,1,9.52,3.54q3.81,3.55,3.81,10,0,9-6.34,17.35l-62.8,87.4h62.17q5.07,0,8.56,4.78a21,21,0,0,1,.16,23,10.27,10.27,0,0,1-8.72,4.62H367.6q-7,0-10.47-4.16A15.05,15.05,0,0,1,353.64,564.6Z"/>
 <path d="m485.59 630.63q0-17.92 10.47-17.92 14.9 0 29.34-10.69t16-35.54l-54.54-115.75a14.72 14.72 0 0 1-1.27-5.34q0-7.55 9.36-13.52t17.92-6q9.52 0 11.74 6.92l38.06 94 30.77-94q2.22-6.91 10.78-6.92 8.25 0 18.08 6.14t9.83 14a12 12 0 0 1-1 4.76l-46.26 118.42-5.39 14q-3.81 10.79-5.55 14.92t-6 12.86q-4.28 8.72-7.61 12.7t-9.36 9.84a41.73 41.73 0 0 1-12.24 8.49 89 89 0 0 1-15.07 4.76 85.62 85.62 0 0 1-19.35 2.06q-9.2 0-14-3.65t-4.71-14.54z"/>
 <path d="m884.56 443.5-90.76-52.4a14.87 14.87 0 0 0-14.86 0l-90.75 52.4a14.87 14.87 0 0 0-7.43 12.87v104.8a14.86 14.86 0 0 0 7.42 12.83l90.75 52.4a14.86 14.86 0 0 0 14.86 0l90.77-52.4a14.86 14.86 0 0 0 7.44-12.83v-104.79a14.87 14.87 0 0 0-7.44-12.88zm-104.36 158.89c0 8.3-7.4 7.48-14.58 3.33l-66.25-38.22a14.66 14.66 0 0 1-7.43-12.6l0.07-75.8a6.92 6.92 0 0 1 10.55-5.95l70.06 40.74c4.53 2.61 7.77 7.06 7.77 12.29z"/>
 <path d="M739.39,562.13c-7.66-.36-16.86-8-18.57-15.45-.63-2.76-.51-5.57-.47-9.15.09-1.73-.27-4.26.36-6.75s1.85-3.35,4.37-3.22a9.72,9.72,0,0,1,3.59,1.06,33.13,33.13,0,0,1,10.65,8,20,20,0,0,0,3.17,3.05c2.83,2,5.84.4,6.07-3.06a8,8,0,0,0-1.8-5.25A50.59,50.59,0,0,0,719,511.83c-7-2-11.92,1.62-13,8.83-.68,4.33-.27,8.67-.36,13a34,34,0,0,0,2.4,13.11c4.7,12.13,13.72,20.18,24.82,26.25a31.62,31.62,0,0,0,10.41,3.67c5.09.78,7.19-1.62,5.36-6.34C747,566.11,744.67,562.38,739.39,562.13Z"/>
 <path d="m759.69 573.5c-3.32-0.9-5.61 0.81-5.6 4.19 0 5 5 11.57 9.82 13 3.39 1 5.66-0.67 5.63-4.23-0.03-4.91-5.16-11.68-9.85-12.96z"/>
</svg>
