<svg id="header-media" xmlns="http://www.w3.org/2000/svg" width="100%" height="100%" viewBox="0 0 958 958"><title>cozy cube</title><path d="M824.7,249.2,505.1,64.7a52.51,52.51,0,0,0-52.3,0L133.3,249.2a52.28,52.28,0,0,0-26.1,45.3v369a52.25,52.25,0,0,0,26.2,45.3L452.9,893.3a52.51,52.51,0,0,0,52.3,0L824.7,708.8a52.37,52.37,0,0,0,26.2-45.3v-369A52.25,52.25,0,0,0,824.7,249.2ZM457.3,808.7c0,29.2-26,26.3-51.3,11.7L172.7,685.8a51.88,51.88,0,0,1-26.2-44.4l.3-266.9c0-19.3,20.4-30.6,37.1-20.9L430.6,497c15.9,9.2,27.4,24.9,27.4,43.3Z" style="fill:#F8F5EB"/><path d="M313.5,666.9c-27-1.3-59.4-28.1-65.4-54.4-2.2-9.7-1.8-19.6-1.6-32.2.3-6.1-1-15,1.3-23.8,2.2-8.6,6.5-11.8,15.4-11.3,4.5.2,8.7,1.9,12.6,3.7,14.5,6.7,26.8,16.4,37.5,28.3,3.5,3.8,7,7.8,11.1,10.8,10,7,20.6,1.4,21.4-10.8.5-7.1-2.4-13.1-6.3-18.5-24.7-34-57.3-57.4-97.6-68.8-24.8-7-42,5.7-45.9,31.1-2.4,15.2-.9,30.5-1.3,45.8a119.74,119.74,0,0,0,8.4,46.2c16.5,42.7,48.3,71.1,87.4,92.4a111.08,111.08,0,0,0,36.6,12.9C345,721,352.4,712.6,346,696,340.3,680.9,332.1,667.8,313.5,666.9Z" style="fill:#F8F5EB"/><path d="M385,706.9c-11.7-3.2-19.8,2.9-19.7,14.7.1,17.5,17.6,40.8,34.6,45.9,11.9,3.6,19.9-2.4,19.8-14.9C419.6,735.2,401.6,711.4,385,706.9Z" style="fill:#F8F5EB"/></svg>
